# xmcd
#
# Track frame offsets: 
#        150
#        18752
#        29760
#        45270
#        60642
#        71617
#        89540
#        105670
#        123520
#        141245
#        155467
#        171092
#        182130
#        196585
#        210935
#        223682
#
# Disc length: 3206 seconds
#
# Revision: 2
# Processed by: cddbd v1.5.1PL0 Copyright (c) Steve Scherf et al.
# Submitted via: ExactAudioCopy v0.95b2
#
DISCID=db0c8410
DTITLE=Various Artist - A Town South of Bakersfield  Vol. 3
DYEAR=1992
DGENRE=Alt.Country
TTITLE0=The Neon Angels/He's Breakin' My Heart
TTITLE1=Wylie and the Wild West Show/Since I Found You
TTITLE2=Dale Watson/One Memory at a Time
TTITLE3=Patty Booker/99
TTITLE4=Calvin Davidson/Hot N' Bothered
TTITLE5=Harry Dean Stanton/I Hope I Never Get Too Old (To Rock and Roll)
TTITLE6=Pam Dwinell/In Your Room
TTITLE7=The Hellecasters/Rockin' the Dog
TTITLE8=Rick Shea/Foot in the Fire
TTITLE9=Steve Kolander/She's So Bad
TTITLE10=Mary Lyn Dias/River of Love
TTITLE11=The Plowboys/Nowhere Isn't Lonely
TTITLE12=The Ruby Trees/Hey (What Are You Doing?)
TTITLE13=Florida Slim and The Hurricanes (featuring Paul Morris)/Ain't L
TTITLE13=ife Grand
TTITLE14=Ronnie Mack/Mama's Reward
TTITLE15=Sid Griffin and The Coal Porters/Crackin' at the Seams
EXTD=Produced by Dan Fredman\nRestless Reccords 1992\nRestless 72592-2
EXTT0=
EXTT1=
EXTT2=
EXTT3=
EXTT4=
EXTT5=
EXTT6=
EXTT7=
EXTT8=
EXTT9=
EXTT10=
EXTT11=
EXTT12=
EXTT13=
EXTT14=
EXTT15=
PLAYORDER=
